<?xml version="1.0" encoding="utf-8"?>
<!-- Generator: Adobe Illustrator 25.1.0, SVG Export Plug-In . SVG Version: 6.00 Build 0)  -->
<svg version="1.1" id="Layer_1" xmlns="http://www.w3.org/2000/svg" xmlns:xlink="http://www.w3.org/1999/xlink" x="0px" y="0px"
viewBox="0 0 2000 2000" style="enable-background:new 0 0 2000 2000;" xml:space="preserve">
<style type="text/css">
.st0{fill:#FFFFFF;}
</style>
<g>
<path class="st0" d="M464.67,571.4c0,0-141.89-519.37,524.44-506.28C989.11,65.12,582.15,232.06,464.67,571.4z"/>
<path class="st0" d="M468.85,211.33c0,0-391.17,261.87-118.39,689.59c0,0-13.09-153.85,41.46-304.42
C391.93,596.49,342.83,429.55,468.85,211.33z"/>
<path class="st0" d="M172.61,556.12c0,0-281.51,321.88,204.04,688.5c0,0-43.64-238.96-135.3-369.89S161.7,646.69,172.61,556.12z"/>
<path class="st0" d="M53.68,947.84c0,0-53.46,393.9,452.82,585.93c0,0-83.29-187.67-222.95-281.51S108.23,1087.14,53.68,947.84z"/>
<path class="st0" d="M177.34,1418.11c0,0,168.76,386.26,682.32,325.15c0,0-245.87-97.47-328.79-159.3
S356.28,1530.13,177.34,1418.11z"/>
<path class="st0" d="M574.87,1775.27c0,0,261.76,198.79,552.47,132.39c261.14-59.65,302.6-296.79,302.6-296.79
S1238.64,1917.84,574.87,1775.27z"/>
<path class="st0" d="M1355.75,1825.46c0,0,195.67-160.03,128.03-523.01C1483.78,1302.45,1760.19,1682.16,1355.75,1825.46z"/>
<path class="st0" d="M1502.69,1127.14c0,0,184.4,118.57,102.57,521.19C1605.25,1648.34,1974.05,1318.45,1502.69,1127.14z"/>
<path class="st0" d="M1440.49,1013.3c0,0,286.97,41.83,348.07,374.44C1788.56,1387.74,1996.97,993.66,1440.49,1013.3z"/>
<path class="st0" d="M1190.63,898.73c0,0,765.97-227.68,687.41,269.87C1878.04,1168.61,1661.27,842.72,1190.63,898.73z"/>
<path class="st0" d="M1780.92,759.07c-66.56-108.02,18.55-78.02,51.83-31.65c0,0-51.46-308.79-478.46-350.25
c0,0,192.04-99.66,162.21-256.78c0,0-74.2,113.48-301.15,186.94c-226.95,73.47-265.87,165.12-306.97,173.49
c-41.1,8.37-65.47,5.46-65.47,5.46s31.64,26.19,50.19,29.82c0,0-72.26,134.82-119.84,140.94c-47.23,6.08-59.59-25.64-60.56-48.01
c0,0-104.2,241.68-15.82,178.4c0,0,7.09,175.67,214.95,188.22c0,0-132.03-96.02-34.91-157.12c0,0,28.91,4.73,34.91,1.82
c6-2.91,11.09-26.37,32.55-29.64c21.46-3.28,68.74,4.04,113.84,56.03c0,0,11.64-32.39,11.27-44.03l141.85,44.03
c0,0-36.01-115.67,102.2-105.86c0,0-20.73-19.28-27.64-40.37c0,0,114.2-9.46,165.85,4.36c51.65,13.82,41.1,32.01,91.65,35.64
c50.56,3.64,97.84-25.82,97.84-25.82s62.19,58.01,90.56,96.74c28.37,38.74,73.1,108.57,230.22,106.39
C1962.05,917.83,1847.48,867.09,1780.92,759.07z M963.67,579.4c0,0,12.73-52.37,149.48-54.92
C1113.16,524.48,1051.39,612.97,963.67,579.4z"/>
<path class="st0" d="M858.75,1376.54c2.38-17.87,4.02-42.14,4.91-72.8c0.89-31.26,0.74-58.2-0.45-80.84H823
c2.08,28.88,3.13,55.23,3.13,79.05c0,31.57-1.64,57.92-4.92,79.06c-1.49,9.23-5.66,15.78-12.51,19.65h61.66
C861.13,1395.6,857.26,1387.56,858.75,1376.54z"/>
<path class="st0" d="M965.84,1212.85l2.02,121.74l-17,19.56l-15.67-5.71l-3.28-109.52v-8.87l-0.27-0.23l-33.37-27.53l-2.36-1.95
v43.89l0.02,0c0.07,69.88,0.32,105.08,0.76,105.58l25.47,36.66c0.6,0.9,1.63,1.35,3.13,1.35c2.98,0,10.42-4.76,22.34-14.3
c29.48-23.54,45.56-36.36,48.25-38.44l2.8-109.96c-0.6,0-7-1.93-19.21-5.81C972.59,1217.09,968.06,1214.94,965.84,1212.85z"/>
<path class="st0" d="M1062.05,1376.54c2.38-17.87,4.02-42.14,4.91-72.8c0.89-31.26,0.74-58.2-0.45-80.84h-40.21
c2.08,28.88,3.13,55.23,3.13,79.05c0,31.57-1.64,57.92-4.92,79.06c-1.49,9.23-5.66,15.78-12.51,19.65h61.66
C1064.42,1395.6,1060.55,1387.56,1062.05,1376.54z"/>
<path class="st0" d="M1210.83,1366.64l0-0.2c-0.02-83.19-0.17-124.93-0.44-125.21l-27.15-40.11l-22.67,14.62l-9.36,10.65
c-4.98,5.38-9.32,10.32-13.01,14.81v-40.08c-19.36,15.43-36.64,28.35-51.83,38.74l22.17-0.89v126.9c0,4.77-0.59,7.75-1.77,8.94
c-1.48,2.08-6.05,4.76-13.71,8.04c2.68,0,6.78-0.14,12.29-0.44c5.5-0.3,9.6-0.45,12.29-0.45c4.17,0,10.5,0.15,18.99,0.45
c8.49,0.3,14.82,0.44,18.99,0.44c-8.74-2.08-13.42-7.89-14.02-17.42c-2.27-38.73-2.96-75.07-2.07-109.03
c0.05-0.07,0.1-0.13,0.15-0.2l15.38-19.01h0l0.82-1.02l0.74-0.91l2.51,1.07l4.28,1.82l7.95,3.38c0,0.01,0.01,0.02,0.01,0.02
l0.55,0.23l0.23,6.25c2.16,52.3,3.38,102.63,3.66,151.03c-0.71,4.21-3.24,8.74-7.55,13.57l-2.15,2.29
c-0.23,0.23-0.45,0.46-0.68,0.69v0.04l-3.67,3.9l49.05-28.25l0-3.85c0,0,0-0.01,0-0.01
C1210.83,1380.23,1210.83,1373.3,1210.83,1366.64z"/>
<path class="st0" d="M1286,1278.53c14.89,0,28.15,3.35,39.77,10.04l11.17-23.21l-12.51-42.85l-36.19-23.66
c-2.39-1.49-5.37-1.64-8.94-0.44l-50.04,39.32c-4.17,22.94-6.25,44.84-6.25,65.69c0,14.6,1.19,27.55,3.57,38.87l45.13,39.32
l22.79-0.39l27.25-38.97l-19.58-25.08c-1.19,14-1.93,21.6-2.22,22.79c-2.08,11.62-6.08,21.3-12.02,29.04l-15.14-14.05l-3.31-72.84
C1271.56,1279.72,1277.07,1278.53,1286,1278.53z M1269.02,1266.86l5.17-52.25l5.27-3.82l25.31,57.22
C1297.62,1266.35,1285.7,1265.96,1269.02,1266.86z"/>
<polygon class="st0" points="859.32,1196.68 867.11,1172.52 855.89,1149.6 820.81,1151.47 816.14,1173.92 832.04,1202.29 	"/>
<polygon class="st0" points="1060.52,1196.68 1068.32,1172.52 1057.09,1149.6 1022.02,1151.47 1017.35,1173.92 1033.24,1202.29
"/>
<path class="st0" d="M679.16,1122.67l-4.34-2.45h-76.35c9.79,4.46,15.28,11.9,16.47,22.3l2.22,262.77
c0,12.79-8.17,21.71-24.5,26.76l114.05,2.28l77.47-76.97v-175.37l-85.88-48.52L679.16,1122.67z M730.36,1374.73l-30.95,30.38
l-2.59,2.54l-8.96-3.61l-10.36-4.17l-12.61-5.08v-19.76l-1.3-147.76l-0.31-35.19v-49.82l67.1,35.95V1374.73z"/>
</g>
</svg>
