<?xml version="1.0" encoding="utf-8"?><!-- Uploaded to: SVG Repo, www.svgrepo.com, Generator: SVG Repo Mixer Tools -->
<svg width="800px" height="800px" viewBox="0 0 163 163" xmlns="http://www.w3.org/2000/svg"><title>Gestures</title><circle cx="81.5" cy="81" r="80" fill="#f7bac8"/><path d="M101.45,69.41a7.93,7.93,0,0,1,9.07-7.83c4,0.57,6.76,4.4,6.76,8.44V99.13c0,14.9-17,27.29-37.92,27a44,44,0,0,1-18.15-4,39.64,39.64,0,0,1-6.28-3.59A31.19,31.19,0,0,1,41.85,94.23s-1-17.08,0-19a7.67,7.67,0,0,1,10.49-3.45l1.33,1.24H54V61c0-4.05,2.76-7.88,6.76-8.44a7.92,7.92,0,0,1,9.07,7.83V31.17c0-4.05,2.74-7.88,6.76-8.45a7.92,7.92,0,0,1,9.06,7.83V62.2a7.91,7.91,0,1,1,15.82,0v7.21Z" fill="#fce7d0"/><path d="M54,89.61a1.5,1.5,0,0,1-1.5-1.5V61c0-5,3.46-9.29,8.06-9.92a9.42,9.42,0,0,1,10.73,8.36,1.5,1.5,0,0,1-3,.3,6.42,6.42,0,0,0-7.33-5.69c-3.07.42-5.47,3.48-5.47,7V88.11A1.5,1.5,0,0,1,54,89.61Z" fill="#5a150b"/><path d="M96.5,54V99.13c0,12.13-11.19,22.58-26.66,25.9a46.85,46.85,0,0,0,9.61,1.09c20.94,0.29,38-12.09,38-27V70c0-4-2.84-7.87-6.84-8.44a8,8,0,0,0-9.16,7.83V62.2a8.19,8.19,0,0,0-8-8.16" fill="#f4c7ad"/><path d="M80.5,30.55q0.07,21.73.14,43.46a2.91,2.91,0,0,0,3,2.73A2.82,2.82,0,0,0,86,74.58l-0.86-44a7.71,7.71,0,0,0-8.79-7.83A8.83,8.83,0,0,0,75,23,7.79,7.79,0,0,1,80.5,30.55Z" fill="#f4c7ad"/><path d="M86.5,63.35a7.9,7.9,0,0,1,7.89-7.92H94.5V42a8.15,8.15,0,0,0-8-7.9V63.35Z" fill="#f49bb5"/><path d="M119.76,73.08A11,11,0,0,0,118.5,73v27.27c0,14.9-17,27.29-38,27a44.11,44.11,0,0,1-18.16-4,39.71,39.71,0,0,1-6.29-3.59c-0.67-.47-1.31-1-1.93-1.48a30.24,30.24,0,0,0,10,11.83,39.62,39.62,0,0,0,6.28,3.59,44.07,44.07,0,0,0,18.16,4c20.94,0.29,37.92-12.09,37.92-27V81.51C126.5,77.48,123.76,73.65,119.76,73.08Z" fill="#f49bb5"/><path d="M101.45,75.57a1.5,1.5,0,0,1-1.5-1.5V62.2a6.41,6.41,0,1,0-12.82,0,1.5,1.5,0,1,1-3,0,9.41,9.41,0,1,1,18.82,0V74.07A1.5,1.5,0,0,1,101.45,75.57Z" fill="#5a150b"/><path d="M80.07,127.64H79.35a45.42,45.42,0,0,1-18.75-4.16,41.27,41.27,0,0,1-6.51-3.72A32.82,32.82,0,0,1,40.35,94.3c-0.37-6.51-.84-17.76.16-19.71A9.4,9.4,0,0,1,46,69.85a9.09,9.09,0,0,1,7,.64,1.49,1.49,0,0,1,.33.23L54.69,72a1.5,1.5,0,0,1-2,2.19l-1.17-1.1a6.1,6.1,0,0,0-4.53-.36A6.41,6.41,0,0,0,43.18,76c-0.46,1.27-.29,10.26.16,18.19A29.81,29.81,0,0,0,55.8,117.29a38.31,38.31,0,0,0,6,3.45,42.52,42.52,0,0,0,17.55,3.89c11.6,0.13,22.7-3.8,29.6-10.61,4.45-4.38,6.8-9.53,6.8-14.89V70c0-3.46-2.4-6.51-5.47-7a6.43,6.43,0,0,0-7.36,6.35,1.5,1.5,0,1,1-3,0,9.43,9.43,0,0,1,10.78-9.32c4.59,0.65,8.05,4.92,8.05,9.92V99.13c0,6.18-2.66,12.06-7.69,17C103.78,123.37,92.22,127.64,80.07,127.64Z" fill="#5a150b"/><path d="M85.63,71.62a1.5,1.5,0,0,1-1.5-1.5V30.55a6.42,6.42,0,0,0-7.35-6.35c-3.11.44-5.47,3.44-5.47,7V68.32a1.5,1.5,0,0,1-3,0V31.17c0-5,3.46-9.29,8.05-9.94a9.42,9.42,0,0,1,10.77,9.32V70.12A1.5,1.5,0,0,1,85.63,71.62Z" fill="#5a150b"/></svg>